<svg width="43" height="37" viewBox="0 0 43 37" fill="none" xmlns="http://www.w3.org/2000/svg">
<path d="M19.7612 1.05952C20.5279 -0.289536 22.4721 -0.289533 23.2388 1.05952L28.3596 10.0698C28.6654 10.6079 29.203 10.974 29.8156 11.0615L40.5633 12.5964C42.2437 12.8364 42.88 14.9287 41.6178 16.0636L34.2079 22.7259C33.695 23.187 33.4559 23.8799 33.5753 24.5591L35.2429 34.0532C35.5215 35.6394 33.9069 36.8876 32.442 36.2184L22.331 31.5996C21.8032 31.3585 21.1968 31.3585 20.669 31.5996L10.558 36.2184C9.09312 36.8876 7.47849 35.6394 7.7571 34.0532L9.42474 24.5591C9.54406 23.8799 9.30497 23.187 8.7921 22.7259L1.38224 16.0636C0.119985 14.9287 0.75629 12.8364 2.43668 12.5964L13.1844 11.0615C13.797 10.974 14.3346 10.6079 14.6404 10.0698L19.7612 1.05952Z" fill="#65AAA1"/>
</svg>
